<svg xmlns="http://www.w3.org/2000/svg" width="45" height="33.048" viewBox="0 0 45 33.048">
  <path id="game-controller-fill-svgrepo-com" d="M52.9,72.865l0-.025L49.83,57.012c0-.012-.006-.023-.009-.035A11.266,11.266,0,0,0,38.756,47.74h0l-16.5.049a11.225,11.225,0,0,0-11.081,9.3c0,.014,0,.027-.007.041L8.111,72.84l0,.026a6.75,6.75,0,0,0,11.42,5.946q.041-.041.078-.084l7.637-8.442,6.534-.026L41.4,78.725q.038.045.08.087A6.75,6.75,0,0,0,52.9,72.865ZM26,60.539H24.5v1.5a1.5,1.5,0,1,1-3,0v-1.5H20a1.5,1.5,0,0,1,0-3h1.5v-1.5a1.5,1.5,0,1,1,3,0v1.5H26a1.5,1.5,0,0,1,0,3Zm7.5-1.5a1.5,1.5,0,0,1,1.5-1.5h6a1.5,1.5,0,0,1,0,3H35a1.5,1.5,0,0,1-1.5-1.5ZM46.9,77.731a3.756,3.756,0,0,1-3.273-1.011L37.8,70.244l.958,0a11.251,11.251,0,0,0,9.551-5.315L49.948,73.4A3.754,3.754,0,0,1,46.9,77.731Z" transform="translate(-8.003 -47.74)" fill="#a8529f"/>
</svg>
