<svg xmlns="http://www.w3.org/2000/svg" width="62" height="62" viewBox="0 0 62 62">
  <path id="logooo" d="M54.967,3.3h-18.6V26.033a2.067,2.067,0,0,1-4.133,0V3.3h-18.6A10.233,10.233,0,0,0,3.3,13.633V54.967A10.233,10.233,0,0,0,13.633,65.3h18.6V50.833a2.067,2.067,0,1,1,4.133,0V65.3h18.6A10.233,10.233,0,0,0,65.3,54.967V13.633A10.233,10.233,0,0,0,54.967,3.3ZM19.833,53.933a5.167,5.167,0,0,1-10.333,0V39.467a5.167,5.167,0,1,1,10.333,0Zm12.4-9.3a6.2,6.2,0,1,1,6.2-6.2A6.089,6.089,0,0,1,32.233,44.633ZM59.1,29.133a5.167,5.167,0,1,1-10.333,0V14.667a5.167,5.167,0,0,1,10.333,0Z" transform="translate(-3.3 -3.3)" fill="#a8529f"/>
</svg>
