<svg xmlns="http://www.w3.org/2000/svg" width="29" height="25.625" viewBox="0 0 29 25.625">
  <g id="XMLID_91_" transform="translate(0 -21.435)">
    <path id="XMLID_92_" d="M224.277,199.3H223.1v-1.181a1.181,1.181,0,0,0-2.362,0V199.3h-1.181a1.181,1.181,0,0,0,0,2.362h1.181v1.181a1.181,1.181,0,0,0,2.362,0v-1.181h1.181a1.181,1.181,0,0,0,0-2.362Z" transform="translate(-201.182 -161.685)" />
    <path id="XMLID_93_" d="M57.929,136.936a8.259,8.259,0,0,0-6.636,3.343,9.054,9.054,0,0,0-10.92,8.859,1.181,1.181,0,0,0,1.181,1.181h9.887a8.265,8.265,0,1,0,6.487-13.383Zm0,14.17a5.9,5.9,0,1,1,5.9-5.9A5.866,5.866,0,0,1,57.929,151.106Z" transform="translate(-37.195 -106.408)"/>
    <path id="XMLID_104_" d="M32.622,42.861A3.546,3.546,0,0,0,35.9,46.393a7.288,7.288,0,0,1,0-7.063A3.546,3.546,0,0,0,32.622,42.861Z" transform="translate(-30.054 -16.486)" />
    <path id="XMLID_105_" d="M7.36,159.315A6.111,6.111,0,0,0,0,165.3a1.181,1.181,0,0,0,1.181,1.181h.081A11.469,11.469,0,0,1,7.36,159.315Z" transform="translate(0 -126.907)"/>
    <path id="XMLID_106_" d="M93.535,23.52a4.937,4.937,0,1,0,4.027-2.085A4.911,4.911,0,0,0,93.535,23.52Z" transform="translate(-85.33 0)" />
  </g>
</svg>
