<svg xmlns="http://www.w3.org/2000/svg" width="31.058" height="31.194" viewBox="0 0 31.058 31.194">
  <g id="edit-button-svgrepo-com" transform="translate(-0.757)">
    <path id="Tracé_10" data-name="Tracé 10" d="M115.744,1.051l-.038-.034a3.887,3.887,0,0,0-5.491.248L96.325,16.472a1.341,1.341,0,0,0-.282.48l-1.633,4.9A1.862,1.862,0,0,0,96.173,24.3h0a1.855,1.855,0,0,0,.748-.157l4.729-2.069a1.34,1.34,0,0,0,.453-.324l13.89-15.207A3.891,3.891,0,0,0,115.744,1.051Zm-18.2,19.893.958-2.873.081-.089,1.816,1.659-.081.089Zm16.473-16.21L102.2,17.661,100.387,16,112.2,3.074A1.2,1.2,0,0,1,113.9,3l.037.034A1.206,1.206,0,0,1,114.012,4.734Z" transform="translate(-85.192)"/>
    <path id="Tracé_11" data-name="Tracé 11" d="M27.857,41.754A1.341,1.341,0,0,0,26.516,43.1V54.482A3.415,3.415,0,0,1,23.1,57.892H6.85a3.415,3.415,0,0,1-3.411-3.411V38.359A3.415,3.415,0,0,1,6.85,34.948H18.615a1.341,1.341,0,1,0,0-2.682H6.85A6.1,6.1,0,0,0,.757,38.359V54.482A6.1,6.1,0,0,0,6.85,60.575H23.1A6.1,6.1,0,0,0,29.2,54.482V43.1A1.341,1.341,0,0,0,27.857,41.754Z" transform="translate(0 -29.381)"/>
  </g>
</svg>
