<svg xmlns="http://www.w3.org/2000/svg" width="512.005" height="512.016" viewBox="0 0 512.005 512.016">
  <g id="exit-svgrepo-com" transform="translate(-1.011 -1.006)">
    <g id="Groupe_14" data-name="Groupe 14">
      <g id="Groupe_13" data-name="Groupe 13">
        <path id="Tracé_18" data-name="Tracé 18" d="M508.184,249.2c.2-.247.379-.507.568-.76.227-.3.463-.6.674-.917s.379-.618.565-.93c.171-.286.35-.565.508-.86.17-.318.314-.645.467-.969.145-.307.3-.609.428-.923s.235-.636.35-.956c.121-.337.25-.67.355-1.015.1-.32.168-.645.249-.968.089-.351.187-.7.258-1.056.074-.375.118-.753.172-1.13.044-.311.1-.618.135-.933a21.468,21.468,0,0,0,0-4.211c-.031-.315-.09-.621-.135-.932-.054-.378-.1-.756-.173-1.13-.071-.358-.169-.7-.258-1.055-.081-.324-.152-.649-.249-.969-.1-.344-.233-.677-.354-1.013-.115-.32-.22-.642-.35-.957s-.283-.616-.428-.922c-.153-.325-.3-.652-.467-.97-.157-.294-.337-.573-.507-.859-.186-.312-.362-.627-.565-.931s-.446-.612-.673-.915c-.19-.254-.367-.515-.57-.762-.443-.539-.909-1.058-1.4-1.551l-.011-.012-64-64a21.333,21.333,0,1,0-30.17,30.17l27.582,27.582H321.019a21.333,21.333,0,1,0,0,42.666H440.182L412.6,284.6a21.333,21.333,0,0,0,30.17,30.17l64-64,.011-.012C507.275,250.26,507.741,249.742,508.184,249.2Z"/>
        <path id="Tracé_19" data-name="Tracé 19" d="M363.686,299.672a21.333,21.333,0,0,0-21.333,21.333V427.672H257.02V86.339a21.334,21.334,0,0,0-15.2-20.434l-74.11-22.233H342.354V150.339a21.333,21.333,0,0,0,42.666,0v-128A21.333,21.333,0,0,0,363.687,1.006H22.347c-.631,0-1.256.029-1.876.083A20.434,20.434,0,0,0,1.988,15.949c-.149.478-.279.966-.395,1.46-.012.053-.022.107-.034.161q-.173.762-.29,1.547c-.011.074-.023.147-.034.221-.067.477-.12.96-.155,1.449a22.818,22.818,0,0,0-.061,2.368V449.014a21.333,21.333,0,0,0,17.15,20.919L231.5,512.6a21.333,21.333,0,0,0,25.517-20.919V470.339H363.686a21.333,21.333,0,0,0,21.333-21.333v-128A21.333,21.333,0,0,0,363.686,299.672ZM214.353,465.658,43.686,431.525V51.02l170.667,51.2V465.658Z"/>
      </g>
    </g>
  </g>
</svg>
