<svg xmlns="http://www.w3.org/2000/svg" width="29" height="25.625" viewBox="0 0 29 25.625">
  <g id="XMLID_107_" transform="translate(0 -21.437)">
    <path id="XMLID_108_" d="M66.195,145.2a8.263,8.263,0,0,0-14.9-4.923,9.054,9.054,0,0,0-10.92,8.859,1.181,1.181,0,0,0,1.181,1.181h9.887A8.263,8.263,0,0,0,66.195,145.2Zm-14.17,0a5.912,5.912,0,1,1,2.964,5.117A5.882,5.882,0,0,1,52.024,145.2Z" transform="translate(-37.195 -106.406)" />
    <path id="XMLID_138_" d="M32.622,42.861A3.546,3.546,0,0,0,35.9,46.393a7.288,7.288,0,0,1,0-7.063A3.546,3.546,0,0,0,32.622,42.861Z" transform="translate(-30.054 -16.484)" />
    <path id="XMLID_169_" d="M1.181,166.478h.081a11.468,11.468,0,0,1,6.1-7.163A6.111,6.111,0,0,0,0,165.3,1.181,1.181,0,0,0,1.181,166.478Z" transform="translate(0 -126.905)" />
    <path id="XMLID_197_" d="M102.5,26.377a4.937,4.937,0,1,0-4.94,4.94A4.946,4.946,0,0,0,102.5,26.377Z" transform="translate(-85.33)" />
    <path id="XMLID_221_" d="M224.277,229.3a1.181,1.181,0,0,0,0-2.362h-4.723a1.181,1.181,0,1,0,0,2.362h4.723Z" transform="translate(-201.182 -189.321)" />
  </g>
</svg>
